HIERARCHY
ROOT pelvis
{
  OFFSET 0 100 0
  CHANNELS 6 Xposition Yposition Zposition Zrotation Xrotation Yrotation
  JOINT pelvis_right_femur
  {
    OFFSET -10.78128 -3.44521 -0.5502486
    CHANNELS 3 Zrotation Xrotation Yrotation
    JOINT right_femur_tibia
    {
      OFFSET -0.8047443 -44.0398 -0.1307829
      CHANNELS 3 Zrotation Xrotation Yrotation
      JOINT right_tibia_foot
      {
        OFFSET 3.006224 -47.83518 -5
        CHANNELS 3 Zrotation Xrotation Yrotation
        End Site
        {
          OFFSET 0 -5 15
        }
      }
    }
  }
  JOINT pelvis_left_femur
  {
    OFFSET 10.78128 -3.44521 -0.5502486
    CHANNELS 3 Zrotation Xrotation Yrotation
    JOINT left_femur_tibia
    {
      OFFSET 0.8047443 -44.0398 -0.1307829
      CHANNELS 3 Zrotation Xrotation Yrotation
      JOINT left_tibia_foot
      {
        OFFSET -4.370144 -48.10324 -4.275266
        CHANNELS 3 Zrotation Xrotation Yrotation
        End Site
        {
          OFFSET 0 -5 15
        }
      }
    }
  }
  JOINT pelvis_spine1
  {
    OFFSET 0 6.468898 -3.129235
    CHANNELS 3 Zrotation Xrotation Yrotation
    JOINT spine1
    {
      OFFSET 0 23.15396 4.99043
      CHANNELS 3 Zrotation Xrotation Yrotation
      JOINT spine2
      {
        OFFSET 0 20.79997 -5.064912
        CHANNELS 3 Zrotation Xrotation Yrotation
        JOINT neck
        {
          OFFSET 0 14.38658 9.616178
          CHANNELS 3 Zrotation Xrotation Yrotation
          End Site
          {
            OFFSET 0 20 0
          }
        }
      }
      JOINT right_manubrium
      {
        OFFSET -5.722621 16.35077 3.967754
        CHANNELS 3 Zrotation Xrotation Yrotation
        JOINT right_clavicle
        {
          OFFSET -13.16364 1.694482 -4.693211
          CHANNELS 3 Zrotation Xrotation Yrotation
          JOINT right_humerus
          {
            OFFSET -28.5034 -0.3100689 -2.792744
            CHANNELS 3 Zrotation Xrotation Yrotation
            JOINT right_radius
            {
              OFFSET -25.15693 0.02248979 -1.271978
              CHANNELS 3 Zrotation Xrotation Yrotation
              End Site
              {
                OFFSET -15 0 0
              }
            }
          }
        }
      }
      JOINT left_manubrium
      {
        OFFSET 5.722621 16.35077 3.967754
        CHANNELS 3 Zrotation Xrotation Yrotation
        JOINT left_clavicle
        {
          OFFSET 13.16364 1.694482 -4.693211
          CHANNELS 3 Zrotation Xrotation Yrotation
          JOINT left_humerus
          {
            OFFSET 29.39168 -1.063119 -2.237045
            CHANNELS 3 Zrotation Xrotation Yrotation
            JOINT left_radius
            {
              OFFSET 24.59957 -0.9528479 0.9047498
              CHANNELS 3 Zrotation Xrotation Yrotation
              End Site
              {
                OFFSET 15 -0 -0
              }
            }
          }
        }
      }
    }
  }
}
MOTION
Frames: 18
Frame Time: 0.0416666666667
23.55629 105.5023 231.314 1.17715 -6.002315 1.031185 0.819987 11.18408 5.943518 8.566132e-10 31.9701 1.172054e-09 2.871743 -11.50106 -3.329869 -1.263414 -18.55563 -6.53054 2.242701e-12 18.81966 -4.020666e-09 -5.891583 -10.47353 19.29446 -2.21974 -0.1464143 7.401805 -0.5331216 9.121092 -4.10185 1.854658 21.83718 6.220341 2.047329 -17.16094 7.878399 3.132843 -20.15117 11.43832 81.09936 27.13282 -6.971646 1.650476e-10 5.070168e-10 23.59421 -25.88415 14.41222 14.52398 4.972003 -15.99778 -0.9859384 -93.06446 21.63632 22.88791 -3.157922e-11 -2.49949e-10 -9.278383 -1.865778 7.822183 14.37617
24.6628 105.7063 237.4348 1.33248 -6.415655 1.219886 0.3671985 9.718412 6.152442 5.49332e-10 38.73776 9.254271e-10 2.911836 -8.851951 -3.900914 -2.360325 -15.81089 -7.57274 -5.34128e-10 20.24873 -4.72636e-09 -5.816438 -10.76222 19.2555 -2.461512 -0.1078518 6.947201 -0.6460494 9.136349 -4.11696 1.919288 22.0192 6.385803 2.126908 -17.08614 8.091884 3.484861 -19.31705 11.32421 81.4126 27.32062 -7.55869 5.804191e-11 4.457585e-10 22.30939 -25.57506 14.11897 14.13962 4.742517 -15.72527 -1.12556 -92.33339 22.14315 21.93638 9.375241e-11 -1.572369e-10 -8.704974 -1.846609 7.840534 14.42158
25.75682 106.353 243.4396 1.529625 -6.777824 1.642328 -0.09233225 6.747399 6.241308 7.727437e-11 45.81186 7.381124e-10 2.881255 -6.054365 -4.655618 -3.693476 -11.51436 -9.008101 -1.181636e-09 20.71726 -5.016558e-09 -5.594168 -11.7249 19.27534 -2.790566 -0.04720932 6.254053 -0.6970282 9.030108 -4.249692 2.023437 22.35076 6.59459 2.203714 -17.06377 8.436989 3.840906 -18.23723 11.1315 82.25619 27.61411 -8.657561 -6.112237e-11 3.358196e-10 20.57441 -24.9507 13.68999 13.52019 4.661865 -15.57993 -1.28917 -91.52336 22.90924 20.32001 2.302667e-10 -5.846864e-11 -8.54541 -1.678213 8.103685 14.28621
26.8085 107.2879 249.2365 1.69036 -6.915473 2.248602 -0.3577811 2.715401 6.151946 -4.96444e-10 50.77619 6.702017e-10 2.605844 -4.002917 -5.368019 -4.862428 -6.451231 -10.52141 -1.773684e-09 20.22057 -4.666164e-09 -5.232191 -13.10413 19.30211 -3.091737 0.03064904 5.427842 -0.6308499 8.739481 -4.46472 2.151304 22.69164 6.741508 2.238317 -17.07112 8.799307 4.084125 -17.04436 10.83777 83.05899 27.92239 -9.961997 -1.683516e-10 1.943043e-10 18.59309 -23.77812 13.09596 12.59533 4.751078 -15.55135 -1.412515 -90.41145 23.83954 18.19313 3.375963e-10 2.237919e-11 -8.858258 -1.327189 8.649052 13.85823
27.7933 108.2852 254.8404 1.784545 -6.826022 2.970358 -0.3740597 -2.050593 5.816816 -1.052805e-09 52.54261 6.887478e-10 2.186412 -2.804106 -5.981384 -5.648848 -1.242077 -11.72629 -2.075918e-09 18.98743 -3.70182e-09 -4.842659 -14.74976 19.20516 -3.297297 0.09633871 4.598316 -0.4516855 8.39938 -4.802875 2.265747 22.98252 6.833002 2.241406 -17.11627 9.111982 4.150845 -15.95425 10.54038 84.05692 28.11486 -11.53946 -2.35472e-10 3.298004e-11 16.64138 -22.51671 12.55859 11.62423 5.049022 -15.83374 -1.544549 -89.20455 24.5864 15.74921 4.085642e-10 7.344365e-11 -9.931106 -0.7759941 9.322379 13.1424
28.70592 109.0671 260.3245 1.807505 -6.524919 3.730323 -0.2103805 -6.911381 5.256103 -1.461986e-09 50.53602 7.437309e-10 1.7904 -2.665603 -6.43601 -5.964876 3.327158 -12.40128 -1.965179e-09 16.69377 -2.199793e-09 -4.521227 -16.52496 18.95106 -3.386765 0.1477631 3.884532 -0.1972497 8.03874 -5.218165 2.351106 23.14251 6.854192 2.195088 -17.11985 9.322753 3.983726 -15.12861 10.26725 85.03846 28.06593 -13.10673 -2.404818e-10 -1.321176e-10 15.06512 -21.48945 12.21111 10.81596 5.552934 -16.39629 -1.670095 -87.94498 24.95498 13.21218 4.313064e-10 7.944113e-11 -11.72438 -0.1206108 9.939071 12.23399
29.51823 109.4368 265.7191 1.729199 -6.061236 4.444092 0.1497759 -11.77185 4.560066 -1.694633e-09 45.23108 7.347019e-10 1.270772 -3.463049 -6.751115 -5.919015 7.343003 -12.69083 -1.440664e-09 14.21185 -2.577159e-10 -4.305709 -18.22475 18.51754 -3.338789 0.1988006 3.253965 0.1289213 7.633492 -5.666885 2.42364 23.17077 6.775004 2.099026 -17.06134 9.418302 3.621108 -14.42834 9.99072 85.75961 27.81549 -14.59815 -2.014527e-10 -3.034258e-10 13.64894 -20.43636 11.94503 10.00467 6.183054 -17.13006 -1.769944 -86.45963 25.03373 10.54763 4.138383e-10 5.905622e-11 -13.99813 0.6472789 10.54153 11.11018
30.22268 109.2824 271.1743 1.603302 -5.628848 5.068439 0.6018425 -16.34558 3.806187 -1.763717e-09 37.90088 6.820085e-10 0.9620809 -4.675117 -7.096095 -5.621265 10.65915 -12.42649 -4.772694e-10 12.38074 1.846988e-09 -4.453372 -19.76787 17.83283 -3.179084 0.2687878 2.773458 0.4614443 7.32128 -6.164946 2.482757 23.16402 6.671778 1.981922 -16.92097 9.443924 3.139578 -13.87942 9.805167 86.80263 27.34021 -16.20219 -1.196414e-10 -4.775318e-10 12.4924 -19.91722 12.01574 9.435282 6.905101 -18.09653 -1.882587 -85.22448 24.71629 7.896164 3.881328e-10 2.808929e-11 -16.77064 1.375369 10.89707 10.01945
30.78619 108.6194 276.627 1.407252 -5.187449 5.552905 1.155738 -20.42569 3.158112 -1.793618e-09 29.8745 5.834652e-10 0.3787914 -6.30117 -7.337581 -5.234309 13.50557 -12.20639 5.264938e-10 11.30062 3.956663e-09 -4.627446 -20.97063 17.17174 -2.945334 0.3521364 2.333507 0.8055241 6.951745 -6.575799 2.557993 23.1276 6.480823 1.843975 -16.76157 9.409252 2.626882 -13.31622 9.59487 87.38635 26.86169 -17.52484 -4.561093e-11 -6.426141e-10 11.31233 -19.05288 11.92747 8.708276 7.562382 -18.93396 -1.93386 -83.90194 24.423 5.41455 3.445986e-10 2.851544e-12 -19.2436 2.133216 11.3453 8.857003
31.20063 107.5642 282.0729 1.201752 -4.875903 5.895749 1.725016 -23.70265 2.680765 -1.807471e-09 22.81692 4.496696e-10 -0.2756438 -7.729859 -7.560244 -4.868535 15.79993 -11.98697 1.393024e-09 11.52873 5.694652e-09 -4.891408 -21.72269 16.54109 -2.6813 0.4410195 1.971786 1.10145 6.648954 -6.893775 2.637731 23.11353 6.272797 1.723812 -16.60504 9.346403 2.182669 -12.7678 9.425042 87.82382 26.41404 -18.6452 7.607737e-12 -7.855244e-10 10.16586 -18.19055 11.80055 7.993183 8.074635 -19.62931 -1.971415 -82.76911 24.1338 3.313205 3.120381e-10 -3.487763e-12 -21.24088 2.81887 11.7527 7.811432
31.48054 106.35 287.5296 1.042789 -4.815571 6.124074 2.24655 -25.91142 2.456869 -1.833908e-09 18.37731 2.716027e-10 -0.9068601 -8.495623 -7.816666 -4.642962 17.55764 -11.85111 1.888465e-09 13.58549 6.729163e-09 -5.257625 -21.93549 16.02512 -2.434972 0.5414857 1.695016 1.301916 6.477127 -7.091384 2.728249 23.20372 6.095994 1.65038 -16.48153 9.30173 1.90754 -12.2157 9.327831 88.33611 26.06629 -19.58984 1.947508e-11 -8.955828e-10 9.041927 -17.46156 11.65117 7.353785 8.356458 -20.10819 -2.01732 -82.06097 23.97132 1.764038 3.148332e-10 2.1361e-11 -22.48401 3.342256 12.08824 7.042142
31.68647 105.2821 293.071 1.00531 -5.118494 6.307286 2.587247 -26.74846 2.497301 -1.867613e-09 18.0567 6.684119e-11 -1.287526 -8.118773 -8.136281 -4.661552 18.66274 -11.77344 1.901445e-09 17.44322 6.77501e-09 -5.733343 -21.61259 15.69879 -2.270286 0.648155 1.539913 1.347137 6.530679 -7.158855 2.821411 23.45629 6.0199 1.652892 -16.40982 9.318576 1.873158 -11.73426 9.351837 89.21874 25.8232 -20.36404 -1.622827e-11 -9.589265e-10 8.086649 -17.21946 11.60299 6.983026 8.357818 -20.34957 -2.109687 -82.08308 23.96514 0.9903176 3.725496e-10 8.034737e-11 -22.80848 3.588464 12.2507 6.739932
31.85614 104.6225 298.6499 1.008421 -5.62683 6.447412 2.91348 -25.99981 2.776475 -1.854907e-09 20.37901 -1.875305e-10 -1.838991 -7.221123 -8.30757 -4.772838 18.76161 -11.86002 1.523608e-09 22.88756 6.050263e-09 -6.095364 -20.56303 15.63655 -2.114238 0.7339669 1.512896 1.290152 6.716697 -7.034449 2.911867 23.75844 5.938755 1.706624 -16.41442 9.305743 1.987265 -11.37329 9.43211 89.78166 25.71916 -20.66133 -9.372152e-11 -9.652342e-10 7.294138 -16.92398 11.39798 6.666198 8.061515 -20.26459 -2.205428 -82.46892 24.14544 1.120804 4.442041e-10 1.665787e-10 -22.02444 3.713835 12.45973 6.660523
31.99804 104.5055 304.2568 0.987391 -6.281074 6.482842 3.405524 -23.66391 3.263628 -1.72056e-09 23.14513 -4.949658e-10 -2.615582 -6.586141 -8.325869 -4.778836 17.48687 -11.8872 1.101699e-09 30.27249 4.882978e-09 -6.54635 -18.75847 15.76418 -1.872424 0.831723 1.687789 1.18385 6.998294 -6.750065 3.015232 24.141 5.794703 1.777924 -16.48102 9.235274 2.142441 -11.20258 9.596168 90.22504 25.696 -20.57555 -1.804322e-10 -9.249868e-10 6.782424 -16.59902 11.15007 6.39955 7.576599 -19.99603 -2.254448 -83.45171 24.46243 2.120904 5.052717e-10 2.700093e-10 -20.5076 3.724229 12.72158 6.76505
32.1042 104.9152 309.7709 0.8991057 -6.904266 6.334126 4.005131 -19.71778 3.86174 -1.481017e-09 25.09147 -8.004902e-10 -3.786121 -6.95684 -8.060537 -4.580054 14.63613 -12.02452 7.380026e-10 37.81337 3.576413e-09 -6.861755 -16.42671 16.25876 -1.565844 0.939083 2.045938 1.057048 7.196433 -6.248114 3.14054 24.52625 5.521437 1.818337 -16.58424 9.090098 2.238902 -11.30327 9.749237 89.95988 25.79516 -19.73014 -2.610419e-10 -8.36946e-10 6.743948 -15.8961 10.64275 6.102433 6.975865 -19.41466 -2.17342 -84.78055 24.98068 3.997965 5.08299e-10 3.630645e-10 -18.17105 3.664916 13.18847 6.926995
32.17196 105.6902 315.1332 0.7554163 -7.413998 5.961841 4.56023 -15.0172 4.349799 -1.184315e-09 25.5165 -1.031723e-09 -5.072178 -8.23072 -7.619055 -4.202311 10.79282 -12.11319 5.73937e-10 43.88589 2.395573e-09 -7.040659 -14.08685 16.96418 -1.245543 1.041258 2.517314 0.9265966 7.30025 -5.646061 3.266147 24.84666 5.172072 1.815319 -16.66595 8.892437 2.198967 -11.68609 9.87393 89.20346 25.85128 -18.34257 -3.102951e-10 -7.282312e-10 7.208743 -15.13355 10.0514 5.914699 6.421976 -18.72255 -2.011058 -86.26029 25.44751 6.311921 4.53859e-10 4.219089e-10 -15.62624 3.586056 13.73807 7.059791
32.22971 106.6817 320.4256 0.5967207 -7.846895 5.375148 4.988126 -9.995962 4.664435 -8.242073e-10 25.00329 -1.157718e-09 -6.058705 -9.76089 -7.120665 -3.70547 6.25833 -11.86599 7.268658e-10 48.48331 1.168605e-09 -7.219283 -11.91655 17.66706 -0.9449166 1.10329 3.125648 0.7757794 7.486181 -5.082387 3.342367 25.08927 4.867116 1.812547 -16.75862 8.666795 2.076901 -12.41343 10.06835 88.60435 25.78736 -16.83598 -3.153563e-10 -6.047212e-10 8.235159 -14.92909 9.760083 6.08204 5.964257 -18.18064 -1.86271 -88.10526 25.58212 8.967257 3.749079e-10 4.445063e-10 -13.37574 3.432606 14.10937 7.29619
32.30013 107.6036 325.5433 0.4245553 -7.958775 4.616671 5.159043 -5.284097 4.698287 -5.192895e-10 23.27562 -1.092908e-09 -6.99389 -11.81646 -6.412208 -3.158019 1.63645 -11.75055 6.883842e-10 48.45041 4.964703e-10 -6.833403 -10.4502 18.54251 -0.7719768 1.075481 3.694486 0.6362942 7.522617 -4.515636 3.361341 25.10283 4.569458 1.77182 -16.84373 8.416133 1.781659 -13.46621 10.14698 87.27353 25.60452 -14.80622 -2.838152e-10 -4.740229e-10 9.791714 -14.69329 9.332427 6.42578 5.677589 -17.60234 -1.699541 -89.51394 25.5173 11.6689 2.327637e-10 3.978503e-10 -11.25612 3.410214 14.57666 7.307543
